<svg width="20" height="20" viewBox="0 0 20 20" fill="none" xmlns="http://www.w3.org/2000/svg">
<path d="M4.64187 6.57234C4.40375 5.00171 5.5125 3.58734 7.20625 3.06984C7.5069 2.97776 7.83135 3.00383 8.11345 3.14273C8.39555 3.28162 8.61404 3.52289 8.72437 3.81734L9.2675 5.26734C9.35496 5.50066 9.37069 5.7548 9.31266 5.99713C9.25464 6.23946 9.12552 6.45892 8.94187 6.62734L7.32625 8.10859C7.24657 8.18179 7.18719 8.27437 7.1539 8.37732C7.1206 8.48027 7.11452 8.59009 7.13625 8.69609L7.15062 8.76109L7.19062 8.92421C7.22625 9.06234 7.28 9.25609 7.35562 9.48671C7.50562 9.94609 7.745 10.5636 8.10125 11.1805C8.4575 11.798 8.8725 12.3136 9.195 12.6736C9.36296 12.8607 9.53853 13.0409 9.72125 13.2136L9.77125 13.2592C9.852 13.3309 9.94994 13.3804 10.0555 13.403C10.1611 13.4256 10.2708 13.4204 10.3737 13.388L12.465 12.7298C12.7025 12.6551 12.957 12.653 13.1957 12.7238C13.4345 12.7946 13.6466 12.9351 13.805 13.1273L14.7944 14.3292C15.2069 14.8292 15.1581 15.5636 14.6837 16.0055C13.3875 17.2142 11.605 17.4617 10.365 16.4648C8.84503 15.2388 7.56369 13.7435 6.585 12.0536C5.59814 10.3651 4.93889 8.50542 4.64187 6.57234V6.57234ZM8.44562 8.77859L9.78687 7.54859C10.1539 7.21174 10.412 6.77289 10.5279 6.28836C10.6438 5.80384 10.6124 5.29572 10.4375 4.82921L9.89375 3.37921C9.67192 2.78679 9.2325 2.30127 8.66508 2.02163C8.09766 1.74198 7.44495 1.68926 6.84 1.87421C4.7375 2.51859 3.04875 4.40359 3.40625 6.75984C3.65625 8.40484 4.23312 10.4973 5.50437 12.6823C6.56004 14.5044 7.94201 16.1167 9.58125 17.4386C11.4406 18.933 13.9244 18.423 15.5362 16.9198C15.9973 16.49 16.277 15.9005 16.3185 15.2715C16.36 14.6426 16.16 14.0215 15.7594 13.5348L14.77 12.333C14.4533 11.9483 14.0289 11.6671 13.5513 11.5253C13.0737 11.3836 12.5646 11.3878 12.0894 11.5373L10.3537 12.0836C10.2875 12.0148 10.21 11.933 10.1256 11.8386C9.7689 11.444 9.45332 11.014 9.18375 10.5555C8.92134 10.0928 8.70669 9.60469 8.54312 9.09859C8.50845 8.9926 8.47594 8.88591 8.44562 8.77859V8.77859Z" fill="black"/>
</svg>
