<svg width="20" height="20" viewBox="0 0 20 20" fill="none" xmlns="http://www.w3.org/2000/svg">
<path d="M10 10.0418C9.01953 10.0418 8.21733 9.22132 8.21733 8.21851C8.21733 7.21571 9.01953 6.39523 10 6.39523C10.9805 6.39523 11.7827 7.21571 11.7827 8.21851C11.7827 9.22132 10.9805 10.0418 10 10.0418ZM15.348 8.58317C15.348 5.27391 12.986 2.74866 10 2.74866C7.01402 2.74866 4.65197 5.27391 4.65197 8.58317C4.65197 10.7164 6.39008 12.8679 10 16.241C13.6099 12.8679 15.348 10.7164 15.348 8.58317ZM10 1.29004C13.7436 1.29004 16.7742 3.86087 16.7742 8.40084C16.7742 11.4275 14.7508 13.9163 10 18.0642C5.24917 13.9163 3.22581 11.4275 3.22581 8.40084C3.22581 3.86087 6.25638 1.29004 10 1.29004Z" fill="black"/>
</svg>
